<svg width="28" height="28" viewBox="0 0 28 28" fill="none" xmlns="http://www.w3.org/2000/svg">
<g clip-path="url(#clip0_55_9)">
<path d="M22 0H6C2.68629 0 0 2.68629 0 6V22C0 25.3137 2.68629 28 6 28H22C25.3137 28 28 25.3137 28 22V6C28 2.68629 25.3137 0 22 0Z" fill="url(#paint0_linear_55_9)"/>
<path fill-rule="evenodd" clip-rule="evenodd" d="M18.6982 9.92491C18.3873 9.92491 18.1057 9.74575 17.9732 9.46575C17.734 8.95908 17.4298 8.31158 17.2498 7.95908C16.984 7.43491 16.5532 7.12991 15.9565 7.12575C15.9465 7.12491 12.0532 7.12491 12.0432 7.12575C11.4465 7.12991 11.0165 7.43491 10.7498 7.95908C10.5707 8.31158 10.2665 8.95908 10.0273 9.46575C9.89484 9.74575 9.61234 9.92491 9.30234 9.92491C7.639 9.92491 6.2915 11.2724 6.2915 12.9349V17.8816C6.2915 19.5432 7.639 20.8916 9.30234 20.8916H18.6982C20.3607 20.8916 21.7082 19.5432 21.7082 17.8816V12.9349C21.7082 11.2724 20.3607 9.92491 18.6982 9.92491Z" stroke="#ECEDEE" stroke-width="1.5" stroke-linecap="round" stroke-linejoin="round"/>
<path fill-rule="evenodd" clip-rule="evenodd" d="M11.3512 15.1121C11.3503 16.5729 12.5428 17.7679 14.0012 17.7671C15.457 17.7654 16.6462 16.5754 16.6487 15.118C16.6512 13.6546 15.4628 12.4621 14.0028 12.4605C12.5345 12.4588 11.3395 13.6713 11.3512 15.1121Z" stroke="#ECEDEE" stroke-width="1.5" stroke-linecap="round" stroke-linejoin="round"/>
<path d="M18.0853 13.1626C18.0048 13.1543 17.9253 13.1333 17.8362 13.0975C17.7372 13.0534 17.6514 12.9975 17.5685 12.9132C17.4195 12.7547 17.3333 12.5475 17.3333 12.3337C17.3333 12.2202 17.3565 12.1076 17.4018 12.0057C17.4472 11.9024 17.5011 11.8152 17.5984 11.7205C17.6724 11.656 17.7483 11.6041 17.8519 11.5584C18.1593 11.4366 18.525 11.5094 18.7535 11.7378C18.822 11.8053 18.8797 11.8868 18.9117 11.9554L18.9307 12.0041C18.9767 12.1076 18.9999 12.2202 18.9999 12.3337C18.9999 12.5518 18.9148 12.7536 18.7567 12.9215C18.6201 13.059 18.4407 13.1436 18.2493 13.1626L18.1666 13.1667L18.0853 13.1626Z" fill="#ECEDEE"/>
</g>
<defs>
<linearGradient id="paint0_linear_55_9" x1="28" y1="28" x2="-0.456083" y2="27.5286" gradientUnits="userSpaceOnUse">
<stop stop-color="#888BF4"/>
<stop offset="1" stop-color="#5151C6"/>
</linearGradient>
<clipPath id="clip0_55_9">
<rect width="28" height="28" fill="white"/>
</clipPath>
</defs>
</svg>
