<svg width="24" height="24" viewBox="0 0 24 24" fill="none" xmlns="http://www.w3.org/2000/svg">
<path fill-rule="evenodd" clip-rule="evenodd" d="M2.02148 12.669C2.02148 10.2898 3.89542 8.34784 6.24772 8.23882L6.45648 8.23399H7.38948C7.8037 8.23399 8.13948 8.56978 8.13948 8.98399C8.13948 9.36368 7.85733 9.67748 7.49125 9.72714L7.38948 9.73399H6.45648C4.89358 9.73399 3.61575 10.956 3.52647 12.4966L3.52148 12.669V17.544C3.52148 19.1061 4.74362 20.3837 6.28406 20.473L6.45648 20.478H17.5865C19.1493 20.478 20.4272 19.2561 20.5165 17.7163L20.5215 17.544V12.659C20.5215 11.1016 19.3039 9.82795 17.7693 9.73896L17.5975 9.73399H16.6545C16.2403 9.73399 15.9045 9.3982 15.9045 8.98399C15.9045 8.60429 16.1866 8.2905 16.5527 8.24084L16.6545 8.23399H17.5975C19.9687 8.23399 21.9046 10.1008 22.0164 12.4446L22.0215 12.659V17.544C22.0215 19.9224 20.1474 21.8642 17.7952 21.9732L17.5865 21.978H6.45648C4.07743 21.978 2.13535 20.1042 2.02631 17.7527L2.02148 17.544V12.669ZM11.4787 1.67274C11.6153 1.52964 11.8079 1.44049 12.0214 1.44049C12.2361 1.44049 12.4298 1.53077 12.5666 1.67545L15.4687 4.58955C15.761 4.88304 15.76 5.35792 15.4665 5.65021C15.1997 5.91593 14.783 5.93928 14.4899 5.72082L14.4059 5.64803L12.7714 4.00792V14.2315C12.7714 14.6457 12.4356 14.9815 12.0214 14.9815C11.6417 14.9815 11.3279 14.6993 11.2782 14.3333L11.2714 14.2315V4.00632L9.63781 5.64794C9.37214 5.9148 8.95553 5.93993 8.66143 5.72273L8.57715 5.6503C8.31029 5.38462 8.28516 4.96802 8.50236 4.67392L8.57479 4.58964L11.4787 1.67274Z" fill="#242424"/>
</svg>
