<svg width="20" height="21" viewBox="0 0 20 21" fill="none" xmlns="http://www.w3.org/2000/svg">
<path fill-rule="evenodd" clip-rule="evenodd" d="M9.77463 4.41594C14.7546 4.26011 17.6913 8.90511 18.223 9.83177C18.3696 10.0884 18.3696 10.4043 18.223 10.6609C17.5113 11.9018 14.8313 15.9593 10.2255 16.0768C10.1571 16.0784 10.0888 16.0793 10.0205 16.0793C5.13463 16.0793 2.3013 11.5751 1.77713 10.6609C1.62963 10.4043 1.62963 10.0884 1.77713 9.83177C2.4888 8.59094 5.16796 4.53261 9.77463 4.41594ZM10.183 14.4109C6.59463 14.4943 4.2538 11.4251 3.47713 10.2426C4.33213 8.90511 6.48546 6.16677 9.81713 6.08177C13.3913 5.99094 15.7455 9.06761 16.5221 10.2501C15.668 11.5876 13.5138 14.3259 10.183 14.4109ZM7.08321 10.2463C7.08321 8.63794 8.39155 7.32961 9.99988 7.32961C11.6082 7.32961 12.9165 8.63794 12.9165 10.2463C12.9165 11.8546 11.6082 13.1629 9.99988 13.1629C8.39155 13.1629 7.08321 11.8546 7.08321 10.2463ZM8.74988 10.2463C8.74988 10.9354 9.31071 11.4963 9.99988 11.4963C10.689 11.4963 11.2499 10.9354 11.2499 10.2463C11.2499 9.55711 10.689 8.99627 9.99988 8.99627C9.31071 8.99627 8.74988 9.55711 8.74988 10.2463Z" fill="url(#paint0_linear_35_24)"/>
<defs>
<linearGradient id="paint0_linear_35_24" x1="18.333" y1="16.0793" x2="1.39986" y2="15.6785" gradientUnits="userSpaceOnUse">
<stop stop-color="#888BF4"/>
<stop offset="1" stop-color="#5151C6"/>
</linearGradient>
</defs>
</svg>
