<svg width="21" height="20" viewBox="0 0 21 20" fill="none" xmlns="http://www.w3.org/2000/svg">
<g clip-path="url(#clip0_39_6)">
<mask id="mask0_39_6" style="mask-type:luminance" maskUnits="userSpaceOnUse" x="0" y="0" width="21" height="20">
<path d="M20.5 0H0.5V20H20.5V0Z" fill="white"/>
</mask>
<g mask="url(#mask0_39_6)">
<path d="M10.5001 19.091C15.5209 19.091 19.591 15.0209 19.591 10.0001C19.591 4.97932 15.5209 0.90918 10.5001 0.90918C5.47932 0.90918 1.40918 4.97932 1.40918 10.0001C1.40918 15.0209 5.47932 19.091 10.5001 19.091Z" stroke="#8F90A7" stroke-width="2" stroke-linecap="round" stroke-linejoin="round"/>
<path d="M1.40918 10H19.591" stroke="#8F90A7" stroke-width="2" stroke-linecap="round" stroke-linejoin="round"/>
<path d="M10.5001 0.90918C12.774 3.39859 14.0663 6.62921 14.1365 10.0001C14.0663 13.371 12.774 16.6016 10.5001 19.091C8.22624 16.6016 6.93399 13.371 6.86377 10.0001C6.93399 6.62921 8.22624 3.39859 10.5001 0.90918Z" stroke="#8F90A7" stroke-width="2" stroke-linecap="round" stroke-linejoin="round"/>
</g>
</g>
<defs>
<clipPath id="clip0_39_6">
<rect width="21" height="20" fill="white"/>
</clipPath>
</defs>
</svg>
