<svg width="18" height="16" viewBox="0 0 18 16" fill="none" xmlns="http://www.w3.org/2000/svg">
<path d="M15.7663 2.48398C15.3753 2.09159 14.9111 1.78032 14.4002 1.56795C13.8893 1.35558 13.3417 1.24628 12.7887 1.24628C12.2357 1.24628 11.6881 1.35558 11.1772 1.56795C10.6663 1.78032 10.2021 2.09159 9.8112 2.48398L8.9998 3.29794L8.18843 2.48398C7.39874 1.69175 6.32768 1.24669 5.21089 1.24669C4.09409 1.24669 3.02303 1.69175 2.23334 2.48398C1.44365 3.2762 1 4.35069 1 5.47106C1 6.59144 1.44365 7.66592 2.23334 8.4581L3.0447 9.2721L8.9998 15.2463L14.9549 9.2721L15.7663 8.4581C16.1574 8.0659 16.4677 7.60027 16.6794 7.08774C16.891 6.57521 17 6.02585 17 5.47106C17 4.91627 16.891 4.36692 16.6794 3.85439C16.4677 3.34185 16.1574 2.87618 15.7663 2.48398Z" stroke="url(#paint0_linear_28_21)" stroke-width="1.5" stroke-linecap="round" stroke-linejoin="round"/>
<defs>
<linearGradient id="paint0_linear_28_21" x1="17" y1="15.2463" x2="0.74075" y2="14.9384" gradientUnits="userSpaceOnUse">
<stop stop-color="#888BF4"/>
<stop offset="1" stop-color="#5151C6"/>
</linearGradient>
</defs>
</svg>
