<svg width="20" height="21" viewBox="0 0 20 21" fill="none" xmlns="http://www.w3.org/2000/svg">
<path fill-rule="evenodd" clip-rule="evenodd" d="M6.41277 11.4053C5.87547 11.4053 5.43896 10.9688 5.43896 10.4315C5.43896 9.8958 5.87547 9.45929 6.41277 9.45929C6.95008 9.45929 7.38658 9.8958 7.38658 10.4315C7.38658 10.9688 6.95008 11.4053 6.41277 11.4053ZM10.1985 11.4053C9.66117 11.4053 9.22466 10.9688 9.22466 10.4315C9.22466 9.8958 9.66117 9.45929 10.1985 9.45929C10.7358 9.45929 11.1723 9.8958 11.1723 10.4315C11.1723 10.9688 10.7358 11.4053 10.1985 11.4053ZM13.0105 10.4315C13.0105 10.9688 13.447 11.4053 13.9843 11.4053C14.5216 11.4053 14.9581 10.9688 14.9581 10.4315C14.9581 9.8958 14.5216 9.45929 13.9843 9.45929C13.447 9.45929 13.0105 9.8958 13.0105 10.4315Z" fill="url(#paint0_linear_29_22)"/>
<path fill-rule="evenodd" clip-rule="evenodd" d="M10.0167 1.91296C5.17508 1.91296 1.66675 5.86806 1.66675 10.2588C1.66675 11.6609 2.07508 13.1039 2.79175 14.4226C2.92508 14.6404 2.94175 14.915 2.85008 15.1745L2.29175 17.044C2.16675 17.4947 2.55008 17.8277 2.97508 17.6941L4.65841 17.1942C5.11675 17.044 5.47508 17.2351 5.90008 17.4947C7.11675 18.2116 8.63342 18.5796 10.0001 18.5796C14.1334 18.5796 18.3334 15.3832 18.3334 10.2338C18.3334 5.79295 14.7501 1.91296 10.0167 1.91296Z" stroke="url(#paint1_linear_29_22)" stroke-width="1.5" stroke-linecap="round" stroke-linejoin="round"/>
<defs>
<linearGradient id="paint0_linear_29_22" x1="14.9581" y1="11.4053" x2="5.3444" y2="10.6262" gradientUnits="userSpaceOnUse">
<stop stop-color="#888BF4"/>
<stop offset="1" stop-color="#5151C6"/>
</linearGradient>
<linearGradient id="paint1_linear_29_22" x1="18.3334" y1="18.5796" x2="1.39527" y2="18.299" gradientUnits="userSpaceOnUse">
<stop stop-color="#888BF4"/>
<stop offset="1" stop-color="#5151C6"/>
</linearGradient>
</defs>
</svg>
